<svg viewBox="0 0 512 512" xmlns="http://www.w3.org/2000/svg"><path d="m10 470v-428c0-17.671875 14.328125-32 32-32h280c17.671875 0 32 14.328125 32 32v428c0 17.671875-14.328125 32-32 32h-280c-17.671875 0-32-14.328125-32-32zm0 0" fill="#b3b6c3"/><path d="m69.210938 10.136719h227.167968v491.863281h-227.167968zm0 0" fill="#ade5ff"/><path d="m77.253906 256h218.332032v-79.378906l-69.476563-69.476563zm0 0" fill="#00a570"/><path d="m144.941406 153.597656-76.527344 76.527344v25.875h178.929688zm0 0" fill="#36d28f"/><path d="m208.085938 354.179688 223.238281-223.238282c16.167969-16.167968 42.382812-16.167968 58.550781 0 16.167969 16.167969 16.167969 42.378906 0 58.550782l-223.238281 223.238281zm0 0" fill="#ffb954"/><path d="m470.683594 208.683594 19.191406-19.191406c16.167969-16.167969 16.167969-42.382813 0-58.550782-16.167969-16.167968-42.382812-16.167968-58.550781 0l-19.191407 19.191406zm0 0" fill="#ff5d5d"/><path d="m171.945312 448.871094 36.140626-94.691406 58.550781 58.550781zm0 0" fill="#b3b6c3"/><path d="m178.488281 74c0 13.253906-10.746093 24-24 24-13.253906 0-24-10.746094-24-24s10.746094-24 24-24c13.253907 0 24 10.746094 24 24zm0 0" fill="#ffb954"/><path d="m496.945312 123.867188c-20.042968-20.039063-52.652343-20.039063-72.691406 0l-60.253906 60.253906v-142.121094c0-23.160156-18.839844-42-42-42h-280c-23.160156 0-42 18.839844-42 42v428c0 23.160156 18.839844 42 42 42h280c23.160156 0 42-18.839844 42-42v-140.492188l132.945312-132.945312c20.039063-20.042969 20.039063-52.652344 0-72.695312zm-230.308593 274.71875-44.410157-44.40625 189.90625-189.90625 44.40625 44.410156zm19.742187 93.414062h-207.167968v-226h202.910156l-81.105469 81.105469c-.996094.996093-1.773437 2.191406-2.273437 3.507812l-36.140626 94.691407c-1.40625 3.683593-.515624 7.847656 2.269532 10.636718 1.910156 1.910156 4.46875 2.925782 7.074218 2.925782 1.195313 0 2.402344-.214844 3.5625-.65625l94.691407-36.140626c1.316406-.503906 2.511719-1.277343 3.507812-2.273437l12.671875-12.671875zm57.621094-326h-37.621094v-60h37.621094zm-324 20h39.210938v60h-39.210938zm39.210938 80v60h-39.210938v-60zm20-32.527344 65.730468-65.734375 48.011719 48.015625c3.90625 3.902344 10.234375 3.902344 14.144531 0 3.902344-3.90625 3.902344-10.238281 0-14.144531l-30.65625-30.65625 49.667969-49.667969 60.269531 60.273438v64.441406h-207.167968zm207.167968-80.199218-53.199218-53.199219c-1.875-1.875-4.417969-2.929688-7.070313-2.929688s-5.195313 1.054688-7.070313 2.929688l-56.738281 56.738281-10.289062-10.285156c-3.90625-3.90625-10.234375-3.90625-14.144531 0l-58.65625 58.65625v-185.183594h207.167968zm-227.167968 12.726562h-39.210938v-60h39.210938zm-39.210938 180h39.210938v60h-39.210938zm191.925781 26.160156 36.726563 36.726563-59.398438 22.671875zm94.453125-130.417968v-55.742188h37.621094v18.121094zm37.621094-199.742188v44h-37.621094v-66h15.621094c12.132812 0 22 9.867188 22 22zm-302-22h17.210938v66h-39.210938v-44c0-12.132812 9.867188-22 22-22zm-22 450v-44h39.210938v66h-17.210938c-12.132812 0-22-9.867188-22-22zm302 22h-15.621094v-66h37.621094v44c0 12.132812-9.867188 22-22 22zm22-86h-37.621094v-18.871094l37.621094-37.621094zm138.804688-223.578125-12.121094 12.117187-44.410156-44.40625 12.121093-12.121093c12.242188-12.242188 32.164063-12.242188 44.410157 0 12.242187 12.242187 12.242187 32.164062 0 44.410156zm0 0"/><path d="m154.488281 108c18.746094 0 34-15.253906 34-34s-15.253906-34-34-34c-18.75 0-34 15.253906-34 34s15.25 34 34 34zm0-48c7.71875 0 14 6.28125 14 14s-6.28125 14-14 14-14-6.28125-14-14 6.28125-14 14-14zm0 0"/><path d="m117.210938 348.601562c-5.523438 0-10 4.476563-10 10v97.5c0 5.523438 4.476562 10 10 10 5.519531 0 10-4.476562 10-10v-97.5c0-5.523437-4.480469-10-10-10zm0 0"/><path d="m117.210938 307.660156c-2.632813 0-5.210938 1.058594-7.070313 2.917969-1.859375 1.871094-2.929687 4.441406-2.929687 7.082031 0 2.628906 1.070312 5.210938 2.929687 7.070313s4.429687 2.929687 7.070313 2.929687c2.628906 0 5.210937-1.070312 7.070312-2.929687 1.859375-1.871094 2.929688-4.441407 2.929688-7.070313s-1.070313-5.210937-2.929688-7.082031c-1.859375-1.859375-4.441406-2.917969-7.070312-2.917969zm0 0"/></svg>