<?xml version="1.0" encoding="UTF-8"?>
<svg xmlns="http://www.w3.org/2000/svg" xmlns:xlink="http://www.w3.org/1999/xlink" width="512" height="512" viewBox="0 0 60 55" version="1.1"><!-- Generator: Sketch 51.3 (57544) - http://www.bohemiancoding.com/sketch --><title>038 - Responsive Design</title><desc>Created with Sketch.</desc><defs><linearGradient x1="9.40285356%" y1="-9.19933868%" x2="90.5828226%" y2="114.330348%" id="linearGradient-1"><stop stop-color="#D3DFF2" offset="0%"/><stop stop-color="#D3DFF2" offset="17.2%"/><stop stop-color="#D3DFF2" offset="20%"/><stop stop-color="#DAE2F2" offset="20%"/><stop stop-color="#EBEAF2" offset="20.1%"/><stop stop-color="#F6EFF2" offset="20.1%"/><stop stop-color="#FDF2F2" offset="20.2%"/><stop stop-color="#FFF3F2" offset="20.5%"/><stop stop-color="#FFF3F2" offset="25.2%"/><stop stop-color="#FFF3F2" offset="26%"/><stop stop-color="#D3DFF2" offset="26%"/><stop stop-color="#D3DFF2" offset="39.7%"/><stop stop-color="#D3DFF2" offset="42%"/><stop stop-color="#DAE2F2" offset="42%"/><stop stop-color="#EBEAF2" offset="42.1%"/><stop stop-color="#F6EFF2" offset="42.1%"/><stop stop-color="#FDF2F2" offset="42.2%"/><stop stop-color="#FFF3F2" offset="42.5%"/><stop stop-color="#FFF3F2" offset="48.9%"/><stop stop-color="#FFF3F2" offset="50%"/><stop stop-color="#F8F0F2" offset="50%"/><stop stop-color="#E7E8F2" offset="50%"/><stop stop-color="#DCE3F2" offset="50%"/><stop stop-color="#D5E0F2" offset="50%"/><stop stop-color="#D3DFF2" offset="50.1%"/><stop stop-color="#D3DFF2" offset="70.6%"/><stop stop-color="#D3DFF2" offset="74%"/><stop stop-color="#FFF3F2" offset="74.1%"/><stop stop-color="#FFF3F2" offset="83.5%"/><stop stop-color="#FFF3F2" offset="85%"/><stop stop-color="#D3DFF2" offset="85.1%"/></linearGradient><linearGradient x1="-5.76923077%" y1="4.6875%" x2="105.769231%" y2="95.3125%" id="linearGradient-2"><stop stop-color="#D3DFF2" offset="0%"/><stop stop-color="#D3DFF2" offset="17.2%"/><stop stop-color="#D3DFF2" offset="20%"/><stop stop-color="#DAE2F2" offset="20%"/><stop stop-color="#EBEAF2" offset="20.1%"/><stop stop-color="#F6EFF2" offset="20.1%"/><stop stop-color="#FDF2F2" offset="20.2%"/><stop stop-color="#FFF3F2" offset="20.5%"/><stop stop-color="#FFF3F2" offset="25.2%"/><stop stop-color="#FFF3F2" offset="26%"/><stop stop-color="#D3DFF2" offset="26%"/><stop stop-color="#D3DFF2" offset="39.7%"/><stop stop-color="#D3DFF2" offset="42%"/><stop stop-color="#DAE2F2" offset="42%"/><stop stop-color="#EBEAF2" offset="42.1%"/><stop stop-color="#F6EFF2" offset="42.1%"/><stop stop-color="#FDF2F2" offset="42.2%"/><stop stop-color="#FFF3F2" offset="42.5%"/><stop stop-color="#FFF3F2" offset="48.9%"/><stop stop-color="#FFF3F2" offset="50%"/><stop stop-color="#F8F0F2" offset="50%"/><stop stop-color="#E7E8F2" offset="50%"/><stop stop-color="#DCE3F2" offset="50%"/><stop stop-color="#D5E0F2" offset="50%"/><stop stop-color="#D3DFF2" offset="50.1%"/><stop stop-color="#D3DFF2" offset="70.6%"/><stop stop-color="#D3DFF2" offset="74%"/><stop stop-color="#FFF3F2" offset="74.1%"/><stop stop-color="#FFF3F2" offset="83.5%"/><stop stop-color="#FFF3F2" offset="85%"/><stop stop-color="#D3DFF2" offset="85.1%"/></linearGradient></defs><g id="Page-1" stroke="none" stroke-width="1" fill="none" fill-rule="evenodd"><g id="038---Responsive-Design" fill-rule="nonzero"><path d="M45,36 L40.08,38 L38.56,37.4 L35,36 C36.3905779,34.3188407 37.1037668,32.1792741 37,30 L38.48,29 L39.96,28 L43,30 C42.8962332,32.1792741 43.6094221,34.3188407 45,36 Z" id="Shape" fill="#CAD9FC"/><path d="M42,36 L38.56,37.4 L35,36 C36.3905779,34.3188407 37.1037668,32.1792741 37,30 L38.48,29 L40,30 C39.8962332,32.1792741 40.6094221,34.3188407 42,36 Z" id="Shape" fill="#E8EDFC"/><path d="M59,22 L59,28 C58.9967052,29.1032019 58.1032019,29.9967052 57,30 L23,30 C21.8967981,29.9967052 21.0032948,29.1032019 21,28 L21,22 L59,22 Z" id="Shape" fill="#CAD9FC"/><path d="M56,22 L56,28 C55.9967052,29.1032019 55.1032019,29.9967052 54,30 L23,30 C21.8967981,29.9967052 21.0032948,29.1032019 21,28 L21,22 L56,22 Z" id="Shape" fill="#E8EDFC"/><path d="M47,38 C46.9918328,39.1011688 46.1011688,39.9918328 45,40 L35,40 C33.8967981,39.9967052 33.0032948,39.1032019 33,38 C33.0081672,36.8988312 33.8988312,36.0081672 35,36 L45,36 C46.1032019,36.0032948 46.9967052,36.8967981 47,38 Z" id="Shape" fill="#CAD9FC"/><path d="M44,38 C43.9918328,39.1011688 43.1011688,39.9918328 42,40 L35,40 C33.8967981,39.9967052 33.0032948,39.1032019 33,38 C33.0081672,36.8988312 33.8988312,36.0081672 35,36 L42,36 C43.1032019,36.0032948 43.9967052,36.8967981 44,38 Z" id="Shape" fill="#E8EDFC"/><path d="M17,28 L17,32 L1,32 L1,28 C1.0032948,26.8967981 1.89679813,26.0032948 3,26 L15,26 C16.1032019,26.0032948 16.9967052,26.8967981 17,28 Z" id="Shape" fill="#CAD9FC"/><path d="M17,48 L17,52 C16.9967052,53.1032019 16.1032019,53.9967052 15,54 L3,54 C1.89679813,53.9967052 1.0032948,53.1032019 1,52 L1,48 L17,48 Z" id="Shape" fill="#CAD9FC"/><path d="M14,28 L14,32 L1,32 L1,28 C1.0032948,26.8967981 1.89679813,26.0032948 3,26 L12,26 C13.1032019,26.0032948 13.9967052,26.8967981 14,28 Z" id="Shape" fill="#E8EDFC"/><path d="M14,48 L14,52 C13.9967052,53.1032019 13.1032019,53.9967052 12,54 L3,54 C1.89679813,53.9967052 1.0032948,53.1032019 1,52 L1,48 L14,48 Z" id="Shape" fill="#E8EDFC"/><path d="M59,3 L59.0000133,24 L21,24 L21,3 C21.0032948,1.89679813 21.8967981,1.0032948 23,1 L57,1 C57.2076171,0.997398915 57.4140805,1.03124538 57.61,1.1 C57.884913,1.18130234 58.1356097,1.32897299 58.34,1.53 C58.7615255,1.90201771 59.0020777,2.43779312 59,3 Z" id="Shape" fill="#A4C2F7"/><path d="M56,3 L56.0000133,24 L21,24 L21,3 C21.0032948,1.89679813 21.8967981,1.0032948 23,1 L54,1 C54.2076171,0.997398915 54.4140805,1.03124538 54.61,1.1 C54.884913,1.18130234 55.1356097,1.32897299 55.34,1.53 C55.7615255,1.90201771 56.0020777,2.43779312 56,3 Z" id="Shape" fill="url(#linearGradient-1)"/><rect id="Rectangle-path" fill="#A4C2F7" x="1" y="32" width="16" height="16"/><rect id="Rectangle-path" fill="url(#linearGradient-2)" x="1" y="32" width="13" height="16"/><circle id="Oval" fill="#428DFF" cx="9" cy="51" r="1"/><path d="M23.625,22.042 L23.625,3.042 C23.6282948,1.93879813 24.5217981,1.0452948 25.625,1.042 L22.625,1.042 C21.5217981,1.0452948 20.6282948,1.93879813 20.625,3.042 L20.625,28.042 C20.6282948,29.1452019 21.5217981,30.0387052 22.625,30.042 L25.625,30.042 C24.5217981,30.0387052 23.6282948,29.1452019 23.625,28.042 L23.625,22.042 Z" id="Shape" fill="#FFFFFF"/><path d="M3.625,52.042 L3.625,28.042 C3.6282948,26.9387981 4.52179813,26.0452948 5.625,26.042 L2.625,26.042 C1.52179813,26.0452948 0.628294801,26.9387981 0.625,28.042 L0.625,52.042 C0.628294801,53.1452019 1.52179813,54.0387052 2.625,54.042 L5.625,54.042 C4.52179813,54.0387052 3.6282948,53.1452019 3.625,52.042 Z" id="Shape" fill="#FFFFFF"/><path d="M15,55 L3,55 C1.34314575,55 2.02906125e-16,53.6568542 0,52 L0,28 C-2.02906125e-16,26.3431458 1.34314575,25 3,25 L15,25 C16.6568542,25 18,26.3431458 18,28 L18,52 C18,53.6568542 16.6568542,55 15,55 Z M3,27 C2.44771525,27 2,27.4477153 2,28 L2,52 C2,52.5522847 2.44771525,53 3,53 L15,53 C15.5522847,53 16,52.5522847 16,52 L16,28 C16,27.4477153 15.5522847,27 15,27 L3,27 Z" id="Shape" fill="#428DFF"/><polygon id="Shape" fill="#FFFFFF" points="22 3 22 16 22 28 20 28 20 16 20 3"/><path d="M21,8 C21.5522847,8 22,7.55228475 22,7 L22,3 L20,3 L20,7 C20,7.55228475 20.4477153,8 21,8 Z" id="Shape" fill="#428DFF"/><path d="M20,28 L22,28 L22,15 C22,14.4477153 21.5522847,14 21,14 C20.4477153,14 20,14.4477153 20,15 L20,28 Z" id="Shape" fill="#428DFF"/><path d="M22,11 C21.9961196,10.7352731 21.892565,10.481743 21.71,10.29 L21.56,10.17 C21.5042729,10.1321227 21.4437381,10.1018554 21.38,10.08 C21.3233376,10.0511123 21.2626625,10.0308873 21.2,10.02 C21.1338555,10.0088692 21.0670388,10.0021875 21,10 C20.7352731,10.0038804 20.481743,10.107435 20.29,10.29 C20.1996032,10.3856071 20.128323,10.4976187 20.08,10.62 C19.9291234,10.9929737 20.0113519,11.4197788 20.29,11.71 C20.3856071,11.8003968 20.4976187,11.871677 20.62,11.92 C20.7402223,11.971241 20.8693227,11.99842 21,12 C21.2660353,12.0027011 21.5219616,11.8982118 21.7100867,11.7100867 C21.8982118,11.5219616 22.0027011,11.2660353 22,11 Z" id="Shape" fill="#428DFF"/><path d="M57,31 L23,31 C21.3431458,31 20,29.6568542 20,28 C20,27.4477153 20.4477153,27 21,27 C21.5522847,27 22,27.4477153 22,28 C22,28.5522847 22.4477153,29 23,29 L57,29 C57.5522847,29 58,28.5522847 58,28 L58,3 C58,2.44771525 57.5522847,2 57,2 L23,2 C22.4477153,2 22,2.44771525 22,3 C22,3.55228475 21.5522847,4 21,4 C20.4477153,4 20,3.55228475 20,3 C20,1.34314575 21.3431458,4.4408921e-16 23,0 L57,0 C58.6568542,0 60,1.34314575 60,3 L60,28 C60,29.6568542 58.6568542,31 57,31 Z" id="Shape" fill="#428DFF"/><path d="M45,41 L35,41 C33.3431458,41 32,39.6568542 32,38 C32,36.3431458 33.3431458,35 35,35 L45,35 C46.6568542,35 48,36.3431458 48,38 C48,39.6568542 46.6568542,41 45,41 Z M35,37 C34.4477153,37 34,37.4477153 34,38 C34,38.5522847 34.4477153,39 35,39 L45,39 C45.5522847,39 46,38.5522847 46,38 C46,37.4477153 45.5522847,37 45,37 L35,37 Z" id="Shape" fill="#428DFF"/><path d="M45,37 L35,37 C34.5956041,36.9999137 34.2310659,36.7562725 34.076322,36.3826546 C33.9215781,36.0090366 34.0070921,35.5789943 34.293,35.293 C35.492441,33.7980237 36.1000235,31.9140554 36,30 C36,29.4477153 36.4477153,29 37,29 L43,29 C43.5522847,29 44,29.4477153 44,30 C43.898688,31.9173554 44.5086718,33.8046374 45.713,35.3 C45.9947049,35.587396 46.0766839,36.015656 45.9210335,36.386772 C45.7653831,36.7578879 45.402435,36.9995403 45,37 Z M36.866,35 L43.134,35 C42.5108045,33.7511524 42.1387733,32.3921344 42.039,31 L37.961,31 C37.8612267,32.3921344 37.4891955,33.7511524 36.866,35 Z" id="Shape" fill="#428DFF"/><path d="M59,25 L21,25 C20.4477153,25 20,24.5522847 20,24 C20,23.4477153 20.4477153,23 21,23 L59,23 C59.5522847,23 60,23.4477153 60,24 C60,24.5522847 59.5522847,25 59,25 Z" id="Shape" fill="#428DFF"/><path d="M10,30 L8,30 C7.44771525,30 7,29.5522847 7,29 C7,28.4477153 7.44771525,28 8,28 L10,28 C10.5522847,28 11,28.4477153 11,29 C11,29.5522847 10.5522847,30 10,30 Z" id="Shape" fill="#428DFF"/><path d="M17,49 L1,49 C0.44771525,49 6.76353751e-17,48.5522847 0,48 L0,32 C-6.76353751e-17,31.4477153 0.44771525,31 1,31 L17,31 C17.5522847,31 18,31.4477153 18,32 L18,48 C18,48.5522847 17.5522847,49 17,49 Z M2,47 L16,47 L16,33 L2,33 L2,47 Z" id="Shape" fill="#428DFF"/><path d="M11,45 L5,45 C4.44771525,45 4,44.5522847 4,44 L4,38 C4,37.4477153 4.44771525,37 5,37 C5.55228475,37 6,37.4477153 6,38 L6,43 L11,43 C11.5522847,43 12,43.4477153 12,44 C12,44.5522847 11.5522847,45 11,45 Z" id="Shape" fill="#428DFF"/><path d="M5,45 C4.5956041,44.9999137 4.23106595,44.7562725 4.07632202,44.3826546 C3.92157809,44.0090366 4.00709208,43.5789943 4.293,43.293 L12.293,35.293 C12.6853789,34.9140278 13.3090848,34.9194476 13.6948186,35.3051814 C14.0805524,35.6909152 14.0859722,36.3146211 13.707,36.707 L5.707,44.707 C5.51950727,44.8945494 5.26519481,44.9999434 5,45 Z" id="Shape" fill="#428DFF"/><path d="M55,12 C54.4477153,12 54,11.5522847 54,11 L54,6 L49,6 C48.4477153,6 48,5.55228475 48,5 C48,4.44771525 48.4477153,4 49,4 L55,4 C55.5522847,4 56,4.44771525 56,5 L56,11 C56,11.5522847 55.5522847,12 55,12 Z" id="Shape" fill="#428DFF"/><path d="M47,14 C46.5956041,13.9999137 46.2310659,13.7562725 46.076322,13.3826546 C45.9215781,13.0090366 46.0070921,12.5789943 46.293,12.293 L54.293,4.293 C54.5440745,4.03304342 54.9158779,3.9287874 55.2655073,4.02030284 C55.6151368,4.11181828 55.8881817,4.38486324 55.9796972,4.73449268 C56.0712126,5.08412211 55.9669566,5.45592553 55.707,5.707 L47.707,13.707 C47.5195073,13.8945494 47.2651948,13.9999434 47,14 Z" id="Shape" fill="#428DFF"/><path d="M1,5 C0.44771525,5 6.76353751e-17,4.55228475 0,4 L0,1 C-6.76353751e-17,0.44771525 0.44771525,0 1,0 L4,0 C4.55228475,0 5,0.44771525 5,1 C5,1.55228475 4.55228475,2 4,2 L2,2 L2,4 C2,4.55228475 1.55228475,5 1,5 Z" id="Shape" fill="#428DFF"/><path d="M59,55 L56,55 C55.4477153,55 55,54.5522847 55,54 C55,53.4477153 55.4477153,53 56,53 L58,53 L58,51 C58,50.4477153 58.4477153,50 59,50 C59.5522847,50 60,50.4477153 60,51 L60,54 C60,54.5522847 59.5522847,55 59,55 Z" id="Shape" fill="#428DFF"/><path d="M1,11 C0.44771525,11 6.76353751e-17,10.5522847 0,10 L0,8 C-6.76353751e-17,7.44771525 0.44771525,7 1,7 C1.55228475,7 2,7.44771525 2,8 L2,10 C2,10.5522847 1.55228475,11 1,11 Z" id="Shape" fill="#428DFF"/><path d="M1,17 C0.44771525,17 6.76353751e-17,16.5522847 0,16 L0,14 C-6.76353751e-17,13.4477153 0.44771525,13 1,13 C1.55228475,13 2,13.4477153 2,14 L2,16 C2,16.5522847 1.55228475,17 1,17 Z" id="Shape" fill="#428DFF"/><path d="M1,23 C0.44771525,23 6.76353751e-17,22.5522847 0,22 L0,20 C-6.76353751e-17,19.4477153 0.44771525,19 1,19 C1.55228475,19 2,19.4477153 2,20 L2,22 C2,22.5522847 1.55228475,23 1,23 Z" id="Shape" fill="#428DFF"/><path d="M10,2 L8,2 C7.44771525,2 7,1.55228475 7,1 C7,0.44771525 7.44771525,0 8,0 L10,0 C10.5522847,0 11,0.44771525 11,1 C11,1.55228475 10.5522847,2 10,2 Z" id="Shape" fill="#428DFF"/><path d="M16,2 L14,2 C13.4477153,2 13,1.55228475 13,1 C13,0.44771525 13.4477153,0 14,0 L16,0 C16.5522847,0 17,0.44771525 17,1 C17,1.55228475 16.5522847,2 16,2 Z" id="Shape" fill="#428DFF"/><path d="M52,55 L50,55 C49.4477153,55 49,54.5522847 49,54 C49,53.4477153 49.4477153,53 50,53 L52,53 C52.5522847,53 53,53.4477153 53,54 C53,54.5522847 52.5522847,55 52,55 Z" id="Shape" fill="#428DFF"/><path d="M46,55 L44,55 C43.4477153,55 43,54.5522847 43,54 C43,53.4477153 43.4477153,53 44,53 L46,53 C46.5522847,53 47,53.4477153 47,54 C47,54.5522847 46.5522847,55 46,55 Z" id="Shape" fill="#428DFF"/><path d="M40,55 L38,55 C37.4477153,55 37,54.5522847 37,54 C37,53.4477153 37.4477153,53 38,53 L40,53 C40.5522847,53 41,53.4477153 41,54 C41,54.5522847 40.5522847,55 40,55 Z" id="Shape" fill="#428DFF"/><path d="M34,55 L32,55 C31.4477153,55 31,54.5522847 31,54 C31,53.4477153 31.4477153,53 32,53 L34,53 C34.5522847,53 35,53.4477153 35,54 C35,54.5522847 34.5522847,55 34,55 Z" id="Shape" fill="#428DFF"/><path d="M28,55 L26,55 C25.4477153,55 25,54.5522847 25,54 C25,53.4477153 25.4477153,53 26,53 L28,53 C28.5522847,53 29,53.4477153 29,54 C29,54.5522847 28.5522847,55 28,55 Z" id="Shape" fill="#428DFF"/><path d="M22,55 L20,55 C19.4477153,55 19,54.5522847 19,54 C19,53.4477153 19.4477153,53 20,53 L22,53 C22.5522847,53 23,53.4477153 23,54 C23,54.5522847 22.5522847,55 22,55 Z" id="Shape" fill="#428DFF"/><path d="M59,48 C58.4477153,48 58,47.5522847 58,47 L58,45 C58,44.4477153 58.4477153,44 59,44 C59.5522847,44 60,44.4477153 60,45 L60,47 C60,47.5522847 59.5522847,48 59,48 Z" id="Shape" fill="#428DFF"/><path d="M59,42 C58.4477153,42 58,41.5522847 58,41 L58,39 C58,38.4477153 58.4477153,38 59,38 C59.5522847,38 60,38.4477153 60,39 L60,41 C60,41.5522847 59.5522847,42 59,42 Z" id="Shape" fill="#428DFF"/><path d="M59,36 C58.4477153,36 58,35.5522847 58,35 L58,33 C58,32.4477153 58.4477153,32 59,32 C59.5522847,32 60,32.4477153 60,33 L60,35 C60,35.5522847 59.5522847,36 59,36 Z" id="Shape" fill="#428DFF"/><path d="M26,6 L25,6 C24.4477153,6 24,5.55228475 24,5 C24,4.44771525 24.4477153,4 25,4 L26,4 C26.5522847,4 27,4.44771525 27,5 C27,5.55228475 26.5522847,6 26,6 Z" id="Shape" fill="#428DFF"/><path d="M38,6 L30,6 C29.4477153,6 29,5.55228475 29,5 C29,4.44771525 29.4477153,4 30,4 L38,4 C38.5522847,4 39,4.44771525 39,5 C39,5.55228475 38.5522847,6 38,6 Z" id="Shape" fill="#428DFF"/><circle id="Oval" fill="#428DFF" cx="40" cy="27" r="1"/></g></g></svg>
